<svg width="151" height="150" viewBox="0 0 151 150" fill="none" xmlns="http://www.w3.org/2000/svg">
<path fill-rule="evenodd" clip-rule="evenodd" d="M57.5658 6.26414e-05C61.3173 -0.0169395 64.1732 3.42999 63.0815 6.80391C60.9988 13.2087 58.748 19.566 56.3212 25.8473C55.8691 27.0224 54.4229 28.1501 53.1808 28.6306C47.6436 30.7554 42.7815 33.8103 38.6325 38.0528C35.3156 41.4467 32.6362 45.3102 30.874 49.6627C29.0693 54.1138 26.1009 56.7566 21.5044 58.0918C16.3932 59.578 11.4146 61.5177 6.38498 63.2854C4.60525 63.917 3.15507 63.2429 1.88792 62.1368C0.341725 60.7921 -0.286353 59.0614 0.121198 56.9921C1.29334 51.0184 2.44449 45.0427 3.59063 39.0674C3.69664 38.5323 3.70114 37.9838 3.74715 37.4412C3.96618 35.0464 5.11232 33.2832 6.88304 31.593C11.4016 27.2805 17.3913 25.2297 21.7094 20.7126C26.512 15.6955 28.5487 9.9828 32.5912 5.65877C34.3129 3.81704 36.4872 3.86454 38.532 3.44749C44.3392 2.25884 50.1804 1.27772 56.0106 0.22359C56.5997 0.113577 57.1963 0.0520691 57.5658 6.26414e-05ZM58.2154 7.27197C59.6106 7.24996 60.7442 6.06382 60.6932 4.67414C60.6462 3.28547 59.4001 2.18783 57.9099 2.22384C56.6907 2.25784 55.6381 3.5085 55.6551 4.90217C55.6741 6.20083 56.8482 7.28897 58.2154 7.27197ZM5.57788 55.1589C4.10469 55.1674 3.06406 56.1725 3.08757 57.5612C3.11107 58.8609 4.27871 59.989 5.55887 59.951C6.83303 59.914 7.86916 58.8354 7.86916 57.5422C7.87316 56.251 6.81153 55.1544 5.57788 55.1589Z" fill="#2E353A"/>
<path d="M95.4953 121.524C94.3467 121.524 93.4146 122.458 93.4146 123.608C93.4146 124.758 94.3467 125.689 95.4953 125.689C96.6459 125.689 97.5736 124.758 97.5736 123.608C97.5736 122.458 96.6459 121.524 95.4953 121.524Z" fill="#2E353A"/>
<path d="M49.6696 46.4154C50.8182 46.4154 51.7483 45.4833 51.7483 44.3317C51.7483 43.182 50.8182 42.2529 49.6696 42.2529C48.5184 42.2529 47.5908 43.1815 47.5908 44.3317C47.5908 45.4833 48.5184 46.4154 49.6696 46.4154Z" fill="#2E353A"/>
<path d="M37.1362 103.153C37.1362 104.301 38.0743 105.236 39.2235 105.236C40.3676 105.236 41.3037 104.301 41.3037 103.153C41.3037 102.003 40.3676 101.071 39.2235 101.071C38.0743 101.071 37.1362 102.003 37.1362 103.153Z" fill="#2E353A"/>
<path d="M79.7916 9.84884C74.2074 9.84484 68.7632 10.5254 63.5406 11.7766C61.7784 17.0412 59.9246 22.2759 57.9264 27.4525C57.4718 28.6267 56.0281 29.7543 54.786 30.2359C49.2508 32.3591 44.3847 35.4135 40.2382 39.656C36.9193 43.051 34.2419 46.9134 32.4797 51.267C31.072 54.7394 28.9403 57.1007 25.8974 58.6079C26.1394 58.9489 26.314 59.3445 26.314 59.7925C26.314 60.9447 25.3818 61.8763 24.2332 61.8763C23.1501 61.8763 22.2925 61.0387 22.1904 59.9826C18.6825 61.0407 15.2326 62.2819 11.7801 63.5325C10.328 69.5803 9.64638 75.9331 9.87191 82.4934C11.1541 119.239 41.5163 150.232 80.4527 149.999C119.18 149.764 150.231 118.132 150.019 79.0564C149.814 40.9682 118.038 9.65031 79.7916 9.84884ZM14.9185 93.3417C13.7694 93.3417 12.8353 92.4091 12.8353 91.2625C12.8353 90.1108 13.7694 89.1812 14.9185 89.1812C16.0647 89.1812 16.9988 90.1108 16.9988 91.2625C16.9988 92.4091 16.0647 93.3417 14.9185 93.3417ZM14.9185 70.5969C13.7694 70.5969 12.8353 69.6673 12.8353 68.5151C12.8353 67.3645 13.7694 66.4364 14.9185 66.4364C16.0647 66.4364 16.9988 67.364 16.9988 68.5151C16.9988 69.6668 16.0647 70.5969 14.9185 70.5969ZM18.547 79.922C18.547 78.7754 19.4811 77.8418 20.6322 77.8418C21.7784 77.8418 22.7105 78.7754 22.7105 79.922C22.7105 81.0707 21.7784 82.0053 20.6322 82.0053C19.4811 82.0053 18.547 81.0707 18.547 79.922ZM22.7105 115.007C21.5619 115.007 20.6322 114.078 20.6322 112.929C20.6322 111.78 21.5619 110.846 22.7105 110.846C23.8616 110.846 24.7913 111.78 24.7913 112.929C24.7913 114.078 23.8616 115.007 22.7105 115.007ZM24.2332 102.421C23.0821 102.421 22.1544 101.488 22.1544 100.341C22.1544 99.1889 23.0821 98.2593 24.2332 98.2593C25.3818 98.2593 26.314 99.1889 26.314 100.341C26.314 101.488 25.3818 102.421 24.2332 102.421ZM137.007 44.8877C138.157 44.8877 139.089 45.8188 139.089 46.9674C139.089 48.1161 138.157 49.0482 137.007 49.0482C135.86 49.0482 134.926 48.1161 134.926 46.9674C134.926 45.8183 135.861 44.8877 137.007 44.8877ZM135.58 57.4287C136.725 57.4287 137.661 58.3629 137.661 59.5105C137.661 60.6591 136.725 61.5913 135.58 61.5913C134.429 61.5913 133.493 60.6591 133.493 59.5105C133.493 58.3629 134.429 57.4287 135.58 57.4287ZM129.172 71.915C129.172 74.0628 127.548 75.7085 125.427 75.7085C123.289 75.7085 121.688 74.0883 121.69 71.917C121.69 69.7428 123.297 68.1151 125.418 68.1366C127.559 68.1581 129.174 69.7848 129.172 71.915ZM84.1886 111.596C86.1104 111.578 87.395 112.43 88.0511 114.226C88.5292 115.533 89.0212 116.84 89.4783 118.156C90.1979 120.227 89.2488 122.156 87.1065 122.525C84.5842 122.963 82.0404 123.396 79.5461 123.396C77.0533 123.392 74.6795 122.974 72.3417 122.558C70.0614 122.152 69.0658 120.27 69.7878 118.127C70.2319 116.808 70.7175 115.498 71.225 114.202C71.9321 112.402 73.1853 111.595 75.128 111.601C78.1444 111.61 81.1678 111.623 84.1886 111.596ZM77.5093 106.957C77.5798 105.76 78.2419 105.023 79.4606 104.921C80.7347 104.813 81.7428 105.743 81.7448 107.001C81.7448 108.344 80.9362 108.96 79.9616 109.138C78.4604 109.172 77.4413 108.195 77.5093 106.957ZM78.4714 102.649C65.3283 101.93 56.2667 90.6869 56.9838 78.8054C57.5253 65.7723 69.0528 56.4856 80.9342 57.3102C93.8968 58.2148 103.186 69.0307 102.281 81.4962C101.29 95.0744 89.8924 103.274 78.4714 102.649ZM38.898 94.3378L36.4327 81.3667C36.4307 77.5167 37.6859 76.4561 41.4458 77.1277C41.6729 77.1687 41.9129 77.1552 42.1424 77.2057C45.7644 77.9478 47.5481 77.4947 47.9916 83.1694C48.1662 85.3512 48.7367 87.513 49.2233 89.6603C49.6734 91.634 49.1953 93.0902 47.4841 94.1568C46.2994 94.8964 45.0828 95.5865 43.8511 96.2491C41.6029 97.4587 39.5756 96.8186 38.898 94.3378ZM43.113 103.105C43.13 105.385 41.5588 107.02 39.3591 107.01C37.2888 106.997 35.5666 105.288 35.5691 103.253C35.5736 101.224 37.2908 99.4735 39.3311 99.416C41.4118 99.3555 43.098 101.003 43.113 103.105ZM54.0434 66.4449C54.1684 65.1857 54.948 64.3416 56.2112 64.3331C57.4783 64.3226 58.2324 65.1092 58.3259 66.4259C58.3324 67.772 57.5698 68.4771 56.3192 68.6341C55.247 68.7732 53.9394 67.5235 54.0434 66.4449ZM58.3219 93.2082C58.3089 94.7749 57.3578 95.768 56.1392 95.655C54.878 95.535 54.1644 94.7204 54.0439 93.5052C53.9399 92.4506 55.256 91.1729 56.2967 91.3205C57.4848 91.49 58.3149 92.1386 58.3219 93.2082ZM54.5085 60.3361C53.0308 62.8404 51.5441 65.3427 50.1324 67.8865C49.2913 69.4047 48.1767 70.3244 46.3549 70.2633C44.6392 69.9628 42.894 69.7613 41.2058 69.3397C39.3166 68.8652 38.393 66.9584 39.085 65.0357C40.7472 60.3731 43.2316 56.1626 46.3634 52.3441C47.6866 50.7359 49.8394 50.6689 51.2766 52.1816C52.4022 53.3632 53.4828 54.5999 54.4534 55.9121C55.4961 57.3212 55.3916 58.8349 54.5085 60.3361ZM46.4039 103.971C48.4977 102.649 50.612 101.286 52.8943 100.378C53.6563 100.071 55.094 100.847 55.9496 101.492C58.2259 103.201 60.3257 105.156 62.5615 106.929C64.0716 108.132 64.7102 109.524 64.1582 111.367C63.7061 112.871 63.156 114.352 62.5465 115.798C61.7439 117.69 59.8731 118.419 58.0789 117.432C53.5883 114.947 49.7344 111.651 46.482 107.685C46.0679 107.182 45.7004 106.486 45.6899 105.77C45.6824 105.053 45.9834 104.237 46.4039 103.971ZM77.4583 52.9402C77.5498 51.68 78.3184 50.9274 79.5711 50.7999C80.6602 50.6874 81.7513 51.712 81.7813 52.7737C81.7408 54.1303 81.0702 54.9809 79.7111 55.1135C78.5819 55.2265 77.3753 54.0633 77.4583 52.9402ZM103.039 91.3445C104.271 91.327 105.082 92.1901 105.224 93.4442C105.349 94.5334 104.103 95.764 102.99 95.6525C101.725 95.5255 100.959 94.8309 100.973 93.2487C100.965 92.0846 101.837 91.361 103.039 91.3445ZM103.101 68.6466C101.946 68.7562 100.836 67.618 100.914 66.4409C100.997 65.1777 101.734 64.4566 103.084 64.2951C104.112 64.2806 105.332 65.4332 105.224 66.5184C105.099 67.755 104.335 68.5296 103.101 68.6466ZM104.967 60.6026C103.908 58.9314 103.774 57.3357 104.974 55.7635C105.886 54.5544 106.857 53.3847 107.9 52.2806C109.426 50.6564 111.477 50.6754 112.912 52.3876C116.08 56.1746 118.564 60.3796 120.193 65.0552C120.936 67.188 119.752 69.0502 117.529 69.4597C116.212 69.7048 114.892 69.9353 113.571 70.1563C113.378 70.1883 113.176 70.1688 113.259 70.1628C110.974 70.2698 109.894 69.3062 109.061 67.702C107.8 65.2812 106.413 62.9179 104.967 60.6026ZM110.059 89.6043C110.653 86.8264 111.148 84.0186 111.539 81.2047C111.787 79.4475 112.583 78.2328 114.292 77.8048C115.924 77.4012 117.59 77.0742 119.259 76.8742C121.247 76.6366 122.758 78.0518 122.822 80.0316C122.841 80.5581 122.873 81.0852 122.824 81.6078C122.512 84.8532 120.359 94.4073 120.359 94.4073C119.711 96.7736 117.662 97.4497 115.516 96.3071C114.229 95.6275 112.967 94.8919 111.747 94.1078C110.024 93.0107 109.632 91.606 110.059 89.6043ZM127.4 41.9063C127.4 43.055 126.467 43.9871 125.317 43.9871C124.168 43.9871 123.233 43.055 123.233 41.9063C123.233 40.7557 124.168 39.8236 125.317 39.8236C126.467 39.8236 127.4 40.7557 127.4 41.9063ZM122.21 27.461C123.361 27.461 124.293 28.3921 124.293 29.5418C124.293 30.6914 123.361 31.6235 122.21 31.6235C121.064 31.6235 120.132 30.6914 120.132 29.5418C120.132 28.3921 121.064 27.461 122.21 27.461ZM114.984 47.616C118.244 46.1298 120.921 46.6244 122.938 49.5958C124.756 52.2741 126.373 55.1185 127.811 58.0188C129.195 60.8152 128.261 63.573 125.787 65.3947C125.254 65.7853 124.316 66.3394 124.316 66.3394C122.845 63.2185 121.484 60.1641 119.575 56.9102C117.658 53.6353 116.059 51.348 113.915 48.3346C113.915 48.3346 114.532 47.8221 114.984 47.616ZM109.487 26.5139C110.638 26.5139 111.575 27.445 111.575 28.5947C111.575 29.7433 110.638 30.6774 109.487 30.6774C108.343 30.6774 107.407 29.7433 107.407 28.5947C107.407 27.445 108.343 26.5139 109.487 26.5139ZM109.607 40.6467C111.794 40.6922 113.342 42.2909 113.293 44.4526C113.246 46.6244 111.656 48.1376 109.441 48.1161C107.401 48.0951 105.73 46.4619 105.698 44.4676C105.661 42.2869 107.392 40.5987 109.607 40.6467ZM102.442 15.9316C103.589 15.9316 104.525 16.8637 104.525 18.0149C104.525 19.166 103.589 20.0986 102.442 20.0986C101.289 20.0986 100.357 19.1655 100.357 18.0149C100.357 16.8642 101.29 15.9316 102.442 15.9316ZM90.1344 19.4C91.287 19.4 92.2211 20.3276 92.2211 21.4788C92.2211 22.6284 91.287 23.5595 90.1344 23.5595C88.9852 23.5595 88.0556 22.6284 88.0556 21.4788C88.0556 20.3281 88.9852 19.4 90.1344 19.4ZM85.9559 32.3901C87.5166 29.1662 89.8988 27.8391 93.3423 28.8442C96.4487 29.7498 99.5105 30.908 102.47 32.2266C105.319 33.4943 106.358 36.2151 105.617 39.196C105.456 39.8361 105.082 40.8607 105.082 40.8607C101.959 39.3975 98.967 37.9103 95.419 36.6207C91.8566 35.3235 89.1663 34.5824 85.5888 33.6293C85.5883 33.6293 85.7388 32.8372 85.9559 32.3901ZM89.7773 37.9723C93.3548 39.1275 96.8837 40.4956 100.307 42.0573C103.297 43.4225 103.613 45.5863 101.498 48.0616C97.6778 52.5376 97.5998 53.4253 91.8221 50.5469C90.4374 49.8578 88.8837 49.4908 87.372 49.0817C84.1976 48.2186 83.4735 47.331 83.4735 44.0771C83.4735 43.6695 83.4735 43.262 83.4735 42.8529C83.0065 36.9882 85.9004 36.7217 89.7773 37.9723ZM79.9236 11.7706C81.0723 11.7706 82.0084 12.7017 82.0084 13.8543C82.0084 15.002 81.0723 15.9316 79.9236 15.9316C78.777 15.9316 77.8403 15.002 77.8403 13.8543C77.8403 12.7012 78.777 11.7706 79.9236 11.7706ZM79.7476 29.7498C81.8814 29.8038 83.5096 31.513 83.423 33.6098C83.34 35.7956 81.7438 37.2652 79.5271 37.1992C77.3568 37.1347 75.7666 35.487 75.8346 33.3743C75.9021 31.2735 77.6088 29.6948 79.7476 29.7498ZM75.7831 41.1042C75.7876 41.7453 75.7831 42.3854 75.7831 43.028C75.7831 43.733 75.7956 44.4346 75.7791 45.1312C75.7321 46.9805 74.7765 48.1641 73.0718 48.7587C70.2819 49.7268 67.5026 50.7269 64.7487 51.7905C62.8995 52.5061 61.5063 52.3126 60.1577 50.8414C59.1345 49.7268 58.1409 48.5717 57.2318 47.357C55.8726 45.5578 56.2407 43.6095 58.2019 42.4569C62.3484 40.0151 66.816 38.3694 71.5466 37.5258C74.3754 37.0212 75.7686 38.2874 75.7831 41.1042ZM69.4858 19.4C70.6345 19.4 71.5731 20.3276 71.5731 21.4788C71.5731 22.6284 70.6345 23.5595 69.4858 23.5595C68.3347 23.5595 67.4051 22.6284 67.4051 21.4788C67.4051 20.3281 68.3347 19.4 69.4858 19.4ZM56.9523 32.4006C59.9121 31.082 62.9695 29.9248 66.0779 29.0202C69.5283 28.0151 71.9041 29.3433 73.4643 32.5672C73.6813 33.0152 73.8339 33.8043 73.8339 33.8043C70.2584 34.7574 67.5616 35.4985 64.0011 36.7967C60.4597 38.0878 57.4618 39.572 54.3384 41.0367C54.3384 41.0367 53.9649 40.0101 53.8059 39.373C53.0623 36.3936 54.1009 33.6708 56.9523 32.4006ZM49.7164 40.6442C51.8461 40.6112 53.5208 42.2204 53.5678 44.3436C53.6058 46.4149 51.9176 48.0891 49.7799 48.1091C47.5971 48.1261 45.9899 46.5669 45.9834 44.4106C45.9769 42.2549 47.5376 40.6762 49.7164 40.6442ZM31.5331 58.0188C32.9723 55.1185 34.59 52.2746 36.4037 49.5958C38.4225 46.6244 41.0983 46.1293 44.3592 47.616C44.8132 47.8221 45.4318 48.3351 45.4318 48.3351C43.2851 51.349 41.6844 53.6358 39.7671 56.9107C37.8604 60.1646 36.5017 63.219 35.0295 66.3399C35.0295 66.3399 34.0889 65.7858 33.5563 65.3952C31.0825 63.573 30.1524 60.8152 31.5331 58.0188ZM33.8109 68.1226C35.9021 68.0866 37.5884 69.7393 37.6284 71.868C37.6669 73.9753 36.0342 75.659 33.9044 75.713C31.8236 75.76 30.1399 74.1038 30.1019 71.9711C30.0634 69.8643 31.7046 68.1581 33.8109 68.1226ZM28.6682 94.1318C27.8851 90.9849 27.2801 87.7735 26.94 84.5526C26.558 80.9827 28.2822 78.8759 31.7256 77.9053C32.2077 77.7688 33.0103 77.7598 33.0103 77.7598C33.3198 81.4467 33.5794 84.2286 34.2329 87.965C34.876 91.6805 35.8081 94.8899 36.7042 98.2213C36.7042 98.2213 35.6281 98.4108 34.976 98.4508C31.9086 98.6609 29.4133 97.1617 28.6682 94.1318ZM32.4542 117.9C32.4542 116.75 33.3858 115.817 34.537 115.817C35.6876 115.817 36.6177 116.75 36.6177 117.9C36.6177 119.049 35.6876 119.98 34.537 119.98C33.3863 119.98 32.4542 119.049 32.4542 117.9ZM37.6374 132.456C36.4882 132.456 35.5586 131.522 35.5586 130.373C35.5586 129.225 36.4882 128.292 37.6374 128.292C38.788 128.292 39.7181 129.225 39.7181 130.373C39.7181 131.522 38.7875 132.456 37.6374 132.456ZM50.2254 133.215C49.0748 133.215 48.1472 132.284 48.1472 131.137C48.1472 129.984 49.0748 129.054 50.2254 129.054C51.3766 129.054 52.3062 129.984 52.3062 131.137C52.3067 132.284 51.3766 133.215 50.2254 133.215ZM49.7164 123.457C47.0855 121.567 44.5437 119.512 42.1959 117.284C39.5881 114.81 39.5356 112.09 41.5268 109.114C41.8029 108.702 42.4125 108.172 42.4125 108.172C45.0413 110.779 47.039 112.729 49.9584 115.15C52.8612 117.561 55.6556 119.397 58.4899 121.354C58.4899 121.354 57.7934 122.195 57.3243 122.656C55.126 124.799 52.2557 125.276 49.7164 123.457ZM57.3933 143.835C56.2427 143.835 55.3106 142.901 55.3106 141.751C55.3106 140.603 56.2427 139.67 57.3933 139.67C58.54 139.67 59.4721 140.603 59.4721 141.751C59.4726 142.901 58.54 143.835 57.3933 143.835ZM63.7021 127.429C61.5978 127.409 59.8801 125.697 59.9311 123.675C59.9841 121.522 61.7829 119.76 63.8631 119.818C65.8164 119.872 67.5961 121.767 67.5581 123.753C67.5191 125.833 65.8254 127.445 63.7021 127.429ZM69.5368 140.339C68.3817 140.339 67.4496 139.406 67.4496 138.26C67.4496 137.109 68.3817 136.178 69.5368 136.178C70.681 136.178 71.6131 137.109 71.6131 138.26C71.6131 139.406 70.681 140.339 69.5368 140.339ZM79.6581 147.995C78.5074 147.995 77.5773 147.063 77.5773 145.914C77.5773 144.763 78.5074 143.835 79.6581 143.835C80.8067 143.835 81.7368 144.763 81.7368 145.914C81.7368 147.063 80.8067 147.995 79.6581 147.995ZM74.7875 132.576C71.6726 132.38 69.7533 130.192 69.4138 127.141C69.3373 126.485 69.3288 125.393 69.3288 125.393C72.7707 125.678 76.0911 126.027 79.8641 126.001C83.6541 125.972 86.4379 125.733 90.1214 125.378C90.1214 125.378 90.2574 126.172 90.2109 126.668C89.8668 130.233 88.1001 132.305 84.5227 132.566C81.2948 132.803 78.0254 132.78 74.7875 132.576ZM90.3319 140.339C89.1833 140.339 88.2491 139.406 88.2491 138.26C88.2491 137.109 89.1833 136.178 90.3319 136.178C91.4825 136.178 92.4147 137.109 92.4147 138.26C92.4147 139.406 91.482 140.339 90.3319 140.339ZM95.6421 127.439C93.4358 127.48 91.6946 125.784 91.7161 123.618C91.7351 121.654 93.4143 119.978 95.4295 119.901C97.5313 119.823 99.26 121.471 99.283 123.568C99.309 125.76 97.7588 127.401 95.6421 127.439ZM96.8412 115.859C96.0596 114.527 95.6036 112.984 95.13 111.488C94.5249 109.558 95.13 108.211 96.7652 106.909C98.9945 105.132 101.177 103.282 103.318 101.399C104.774 100.124 106.241 99.836 107.961 100.751C109.195 101.407 110.424 102.087 111.609 102.827C113.772 104.175 114.068 106.191 112.439 108.144C109.488 111.676 105.954 114.533 102.082 116.971C101.36 117.424 100.581 118.39 99.2965 118.17C98.2149 117.988 97.3978 116.806 96.8412 115.859ZM102.34 143.835C101.19 143.835 100.256 142.901 100.256 141.751C100.256 140.603 101.19 139.67 102.34 139.67C103.485 139.67 104.419 140.603 104.419 141.751C104.42 142.901 103.485 143.835 102.34 143.835ZM109.549 133.215C108.4 133.215 107.471 132.284 107.471 131.137C107.471 129.984 108.4 129.054 109.549 129.054C110.7 129.054 111.63 129.984 111.63 131.137C111.63 132.284 110.7 133.215 109.549 133.215ZM117.293 117.284C114.944 119.512 112.397 121.567 109.766 123.457C107.235 125.276 104.36 124.799 102.162 122.656C101.689 122.195 100.992 121.354 100.992 121.354C103.836 119.397 106.625 117.561 109.532 115.15C112.447 112.729 114.445 110.779 117.069 108.172C117.069 108.172 117.677 108.702 117.955 109.114C119.953 112.09 119.898 114.81 117.293 117.284ZM116.161 103.201C116.163 101.121 117.883 99.3915 119.938 99.408C121.934 99.4285 123.714 101.247 123.716 103.274C123.72 105.317 121.962 107.018 119.875 107C117.734 106.982 116.159 105.376 116.161 103.201ZM122.227 132.456C121.081 132.456 120.144 131.522 120.144 130.373C120.144 129.225 121.081 128.292 122.227 128.292C123.376 128.292 124.31 129.225 124.31 130.373C124.31 131.522 123.376 132.456 122.227 132.456ZM125.272 120.252C124.121 120.252 123.191 119.319 123.191 118.17C123.191 117.021 124.121 116.089 125.272 116.089C126.42 116.089 127.351 117.021 127.351 118.17C127.351 119.318 126.42 120.252 125.272 120.252ZM132.225 84.4586C131.928 87.6815 131.372 90.9059 130.643 94.0603C129.939 97.1017 127.467 98.6419 124.402 98.4798C123.744 98.4468 122.662 98.2768 122.662 98.2768C123.507 94.9324 124.393 91.7075 124.981 87.9805C125.574 84.2371 125.79 81.4502 126.043 77.7598C126.043 77.7598 126.851 77.7578 127.327 77.8838C130.792 78.8029 132.546 80.8842 132.225 84.4586ZM133.493 100.262C133.493 99.1099 134.429 98.1793 135.58 98.1793C136.725 98.1793 137.661 99.1099 137.661 100.262C137.661 101.41 136.725 102.341 135.58 102.341C134.429 102.341 133.493 101.41 133.493 100.262ZM136.922 115.007C135.774 115.007 134.839 114.078 134.839 112.929C134.839 111.78 135.774 110.846 136.922 110.846C138.071 110.846 139.001 111.78 139.001 112.929C139.001 114.078 138.07 115.007 136.922 115.007ZM139.298 82.0053C138.149 82.0053 137.215 81.0707 137.215 79.922C137.215 78.7754 138.149 77.8418 139.298 77.8418C140.447 77.8418 141.379 78.7754 141.379 79.922C141.379 81.0707 140.446 82.0053 139.298 82.0053ZM144.763 70.5069C143.614 70.5069 142.682 69.5748 142.682 68.4231C142.682 67.2755 143.614 66.3444 144.763 66.3444C145.912 66.3444 146.844 67.2755 146.844 68.4231C146.844 69.5743 145.912 70.5069 144.763 70.5069Z" fill="#2E353A"/>
<path d="M79.6047 35.528C80.7538 35.528 81.6879 34.5939 81.6879 33.4453C81.6879 32.2976 80.7538 31.3635 79.6047 31.3635C78.4585 31.3635 77.5244 32.2976 77.5244 33.4453C77.5244 34.5939 78.4585 35.528 79.6047 35.528Z" fill="#2E353A"/>
<path d="M125.346 69.7283C124.195 69.7283 123.261 70.6604 123.261 71.808C123.261 72.9592 124.195 73.8933 125.346 73.8933C126.492 73.8933 127.426 72.9592 127.426 71.808C127.426 70.6604 126.492 69.7283 125.346 69.7283Z" fill="#2E353A"/>
<path d="M63.7125 121.44C62.5658 121.44 61.6362 122.37 61.6362 123.519C61.6362 124.671 62.5658 125.601 63.7125 125.601C64.8631 125.601 65.7932 124.671 65.7932 123.519C65.7932 122.37 64.8631 121.44 63.7125 121.44Z" fill="#2E353A"/>
<path d="M33.8664 73.9794C35.015 73.9794 35.9447 73.0473 35.9447 71.8987C35.9447 70.749 35.015 69.8169 33.8664 69.8169C32.7153 69.8169 31.7856 70.749 31.7856 71.8987C31.7856 73.0473 32.7153 73.9794 33.8664 73.9794Z" fill="#2E353A"/>
<path d="M119.9 100.985C118.754 100.985 117.817 101.917 117.817 103.064C117.817 104.215 118.754 105.147 119.9 105.147C121.049 105.147 121.985 104.215 121.985 103.064C121.985 101.917 121.048 100.985 119.9 100.985Z" fill="#2E353A"/>
<path d="M109.545 46.3698C110.691 46.3698 111.623 45.4377 111.623 44.289C111.623 43.1394 110.691 42.2073 109.545 42.2073C108.39 42.2073 107.462 43.1394 107.462 44.289C107.461 45.4372 108.39 46.3698 109.545 46.3698Z" fill="#2E353A"/>
</svg>
