<svg width="41" height="40" viewBox="0 0 41 40" fill="none" xmlns="http://www.w3.org/2000/svg">
<path d="M20.009 9.74447C14.3322 9.74447 9.75344 14.3233 9.75344 20C9.75344 25.6766 14.3322 30.2555 20.009 30.2555C25.6856 30.2555 30.2644 25.6766 30.2644 20C30.2644 14.3233 25.6856 9.74447 20.009 9.74447ZM20.009 26.6674C16.3405 26.6674 13.3415 23.6773 13.3415 20C13.3415 16.3226 16.3316 13.3325 20.009 13.3325C23.6862 13.3325 26.6763 16.3226 26.6763 20C26.6763 23.6773 23.6774 26.6674 20.009 26.6674ZM33.076 9.32503C33.076 10.6549 32.0049 11.717 30.6839 11.717C29.354 11.717 28.2918 10.646 28.2918 9.32503C28.2918 8.00399 29.363 6.93294 30.6839 6.93294C32.0049 6.93294 33.076 8.00399 33.076 9.32503ZM39.8683 11.7528C39.7166 8.54847 38.9847 5.71014 36.6373 3.37164C34.2988 1.03314 31.4605 0.301238 28.2562 0.140578C24.9537 -0.0468592 15.0552 -0.0468592 11.7528 0.140578C8.55744 0.292313 5.71906 1.02421 3.37164 3.36271C1.02421 5.70121 0.301238 8.53951 0.140578 11.7438C-0.0468592 15.0463 -0.0468592 24.9448 0.140578 28.2472C0.292313 31.4515 1.02421 34.2898 3.37164 36.6284C5.71906 38.9669 8.54848 39.6987 11.7528 39.8594C15.0552 40.0469 24.9537 40.0469 28.2562 39.8594C31.4605 39.7077 34.2988 38.9757 36.6373 36.6284C38.9758 34.2898 39.7077 31.4515 39.8683 28.2472C40.0558 24.9448 40.0558 15.0552 39.8683 11.7528ZM35.6019 31.7907C34.9058 33.5401 33.558 34.8878 31.7996 35.5929C29.1666 36.6373 22.9186 36.3963 20.009 36.3963C17.0992 36.3963 10.8423 36.6284 8.21824 35.5929C6.46882 34.8968 5.12106 33.549 4.41594 31.7907C3.37164 29.1577 3.61263 22.9097 3.61263 20C3.61263 17.0902 3.38057 10.8334 4.41594 8.20927C5.11213 6.45988 6.45989 5.11212 8.21824 4.407C10.8513 3.36271 17.0992 3.6037 20.009 3.6037C22.9186 3.6037 29.1755 3.37164 31.7996 4.407C33.549 5.1032 34.8968 6.45096 35.6019 8.20927C36.6462 10.8423 36.4052 17.0902 36.4052 20C36.4052 22.9097 36.6462 29.1665 35.6019 31.7907Z" fill="black"/>
</svg>
