<svg width="auto" height="40" viewBox="0 0 55 40" fill="none" xmlns="http://www.w3.org/2000/svg">
<path d="M49.6053 0H5.13158C2.29745 0 0 2.23854 0 5V35C0 37.7615 2.29745 40 5.13158 40H49.6053C52.4394 40 54.7368 37.7615 54.7368 35V5C54.7368 2.23854 52.4394 0 49.6053 0ZM49.6053 5V9.25052C47.2082 11.1525 43.3866 14.11 35.2169 20.3432C33.4164 21.7231 29.85 25.0382 27.3684 24.9996C24.8873 25.0386 21.3197 21.7226 19.52 20.3432C11.3515 14.1109 7.52899 11.1528 5.13158 9.25052V5H49.6053ZM5.13158 35V15.6665C7.58127 17.5676 11.0552 20.2354 16.3503 24.2754C18.687 26.0676 22.7791 30.024 27.3684 29.9999C31.9352 30.024 35.9755 26.125 38.3856 24.2762C43.6805 20.2364 47.1555 17.5678 49.6053 15.6666V35H5.13158Z" fill="black"/>
</svg>
