<svg width="153" height="150" viewBox="0 0 153 150" fill="none" xmlns="http://www.w3.org/2000/svg">
<path d="M49.9978 102.273C52.0745 104.355 53.6615 106.755 54.7785 109.313L76.1263 87.1335L97.4762 109.313C98.5912 106.755 100.178 104.355 102.255 102.273C104.337 100.192 106.734 98.6072 109.3 97.4902L86.7038 76.1378L107.027 55.0244C105.731 53.5237 104.261 51.9322 102.537 50.2107C100.818 48.4893 99.2261 47.0185 97.7269 45.7178L76.1263 66.1363L54.5253 45.7183C53.0225 47.019 51.4356 48.4898 49.7121 50.2112C47.9921 51.9327 46.5224 53.5243 45.2206 55.025L65.5489 76.1383L42.9541 97.4907C45.518 98.6077 47.916 100.192 49.9978 102.273Z" fill="#2E353A"/>
<path d="M61.4323 118.399L59.8799 119.949L56.609 116.678C56.9698 121.403 55.8777 126.245 53.2361 130.485C53.8654 132.526 53.3482 134.794 51.7699 136.367C50.1997 137.937 47.9347 138.465 45.8879 137.833C41.6502 140.475 36.8091 141.569 32.0791 141.204L35.352 144.477L33.8026 146.03L37.7723 150L39.3217 148.45L40.4093 149.533L64.9382 125.005L63.8547 123.924L65.4051 122.375L61.4323 118.399Z" fill="#2E353A"/>
<path d="M14.4361 106.383C13.8068 104.337 14.327 102.072 15.8972 100.496C17.475 98.9236 19.74 98.4008 21.7822 99.0352C26.0296 96.3911 30.8656 95.2994 35.589 95.6623L32.3181 92.3914L33.8706 90.839L29.8978 86.8667L28.3453 88.4141L27.2649 87.3361L2.737 111.859L3.82256 112.94L2.26807 114.494L6.24287 118.467L7.79229 116.915L11.0652 120.19C10.7074 115.463 11.7945 110.623 14.4361 106.383Z" fill="#2E353A"/>
<path d="M45.6716 135.344C47.0997 136.22 48.9841 136.053 50.2184 134.817C51.4582 133.581 51.6257 131.692 50.7477 130.268C56.4029 122.206 55.6472 111.022 48.4451 103.825C41.2441 96.6234 30.0581 95.8682 22.003 101.52C20.5738 100.644 18.6874 100.812 17.4542 102.05C16.2133 103.284 16.0459 105.172 16.9309 106.594C11.2768 114.658 12.0315 125.84 19.2264 133.039C26.429 140.239 37.6099 140.994 45.6716 135.344ZM23.7595 128.51C18.1946 122.943 18.1946 113.92 23.7595 108.353C29.3233 102.792 38.3483 102.792 43.9172 108.353C49.4769 113.92 49.4769 122.943 43.9172 128.51C38.3488 134.073 29.3233 134.073 23.7595 128.51Z" fill="#2E353A"/>
<path d="M152.252 36.7598L115.493 0L112.528 2.96537L149.291 39.7267L152.252 36.7598Z" fill="#2E353A"/>
<path d="M104.499 47.7509C113.679 56.9342 116.377 63.309 116.303 69.1565L118.081 70.9363L142.906 46.1106L106.142 9.35181L81.3184 34.174L83.0936 35.9503C88.9386 35.8772 95.32 38.5721 104.499 47.7509ZM106.988 36.9014C109.3 34.5912 113.047 34.5912 115.356 36.9014C117.665 39.207 117.665 42.9559 115.356 45.2625C113.046 47.5768 109.299 47.5768 106.988 45.2625C104.68 42.9559 104.68 39.2075 106.988 36.9014Z" fill="#2E353A"/>
<path d="M147.088 41.9241L110.326 5.16333L108.344 7.15428L145.099 43.9131L147.088 41.9241Z" fill="#2E353A"/>
<path d="M106.364 137.832C104.319 138.464 102.053 137.937 100.477 136.366C98.9004 134.793 98.3868 132.526 99.0161 130.484C96.3705 126.245 95.2834 121.402 95.6382 116.677L92.3673 119.948L90.8179 118.398L86.8481 122.374L88.3976 123.923L87.3151 125.004L111.843 149.532L112.925 148.449L114.475 149.999L118.451 146.029L116.896 144.476L120.169 141.203C115.444 141.568 110.602 140.474 106.364 137.832Z" fill="#2E353A"/>
<path d="M149.515 111.859L124.982 87.3361L123.902 88.4141L122.354 86.8667L118.378 90.839L119.93 92.3914L116.659 95.6623C121.382 95.2994 126.226 96.3916 130.463 99.0352C132.508 98.4008 134.777 98.9236 136.35 100.496C137.921 102.072 138.445 104.337 137.811 106.383C140.458 110.623 141.545 115.463 141.185 120.19L144.46 116.915L146.009 118.467L149.985 114.494L148.426 112.94L149.515 111.859Z" fill="#2E353A"/>
<path d="M134.803 102.051C133.565 100.813 131.679 100.645 130.249 101.521C122.19 95.8687 111.009 96.6238 103.807 103.825C96.6093 111.023 95.8521 122.207 101.504 130.269C100.626 131.693 100.794 133.581 102.029 134.817C103.265 136.054 105.152 136.221 106.58 135.345C114.637 140.995 125.819 140.24 133.021 133.04C140.222 125.84 140.976 114.659 135.321 106.595C136.201 105.173 136.034 103.284 134.803 102.051ZM128.489 128.51C122.925 134.074 113.899 134.074 108.34 128.51C102.771 122.943 102.771 113.92 108.34 108.353C113.899 102.792 122.925 102.792 128.489 108.353C134.057 113.92 134.057 122.943 128.489 128.51Z" fill="#2E353A"/>
<path d="M39.7196 2.96537L36.7598 0L0 36.7598L2.96181 39.7267L39.7196 2.96537Z" fill="#2E353A"/>
<path d="M34.1712 70.9363L35.9485 69.1565C35.8744 63.309 38.5673 56.9342 47.7481 47.7509C56.932 38.5721 63.3134 35.8772 69.1548 35.9503L70.929 34.174L46.1109 9.35181L9.35107 46.1106L34.1712 70.9363ZM36.8971 36.9014C39.2108 34.5912 42.9537 34.5912 45.2603 36.9014C47.5669 39.207 47.5669 42.9559 45.2603 45.2625C42.9537 47.5768 39.2108 47.5768 36.8971 45.2625C34.5874 42.9559 34.5874 39.2075 36.8971 36.9014Z" fill="#2E353A"/>
<path d="M7.14842 43.9131L43.9128 7.15428L41.9264 5.16333L5.16406 41.9241L7.14842 43.9131Z" fill="#2E353A"/>
</svg>
