<svg width="150" height="150" viewBox="0 0 150 150" fill="none" xmlns="http://www.w3.org/2000/svg">
<path d="M26.5762 104.135L23.2397 107.552L54.6452 115.53L58.0617 112.132L26.5762 104.135Z" fill="#2E353A"/>
<path d="M63.6519 66.0977L92.2098 73.3542L74.0973 55.3748L63.6519 66.0977Z" fill="#2E353A"/>
<path d="M40.0426 90.323L36.8066 93.6365L68.5591 101.7L71.8751 98.407L40.0426 90.323Z" fill="#2E353A"/>
<path d="M10.0893 121.052L14.6698 126.105C8.32835 124.714 1.98436 128.59 0.374358 134.93C-1.26764 141.399 2.64485 147.981 9.11484 149.625C15.5918 151.269 22.1733 147.356 23.8173 140.886C24.1883 139.409 24.2658 137.927 24.0958 136.5L28.5773 141.441L44.1463 125.962L13.0103 118.055L10.0893 121.052ZM17.7808 139.349C16.9853 142.49 13.7898 144.39 10.6458 143.59C7.51185 142.797 5.61135 139.601 6.40785 136.462C7.20435 133.322 10.4013 131.421 13.5373 132.216C16.6773 133.016 18.5763 136.214 17.7808 139.349Z" fill="#2E353A"/>
<path d="M53.4159 76.5967L50.2744 79.8217L82.3689 87.9757L85.5919 84.7727L53.4159 76.5967Z" fill="#2E353A"/>
<path d="M95.4928 75.9818L53.6864 65.3603C51.2134 64.7318 48.7114 66.2258 48.0839 68.6938C47.4564 71.1658 48.9459 73.6743 51.4149 74.3008L93.2213 84.9223C95.6903 85.5463 98.1993 84.0543 98.8268 81.5843C99.4548 79.1148 97.9618 76.6058 95.4928 75.9818Z" fill="#2E353A"/>
<path d="M83.6748 90.0956L41.8703 79.4797C39.3983 78.8487 36.8843 80.3402 36.2613 82.8097C35.6338 85.2802 37.1278 87.7901 39.5953 88.4221L81.4028 99.0316C83.8742 99.6606 86.3823 98.1666 87.0122 95.6986C87.6367 93.2266 86.1437 90.7181 83.6748 90.0956Z" fill="#2E353A"/>
<path d="M69.8966 103.827L28.0862 93.2081C25.6197 92.5841 23.1112 94.0761 22.4827 96.546C21.8562 99.0175 23.3492 101.527 25.8177 102.151L67.6256 112.77C70.0956 113.397 72.6071 111.906 73.2346 109.437C73.8606 106.964 72.3641 104.456 69.8966 103.827Z" fill="#2E353A"/>
<path d="M55.0001 117.407L13.1922 106.791C10.7222 106.169 8.21368 107.66 7.58618 110.131C6.95968 112.601 8.45268 115.112 10.9217 115.734L52.7341 126.353C55.1996 126.984 57.7081 125.491 58.3331 123.019C58.9606 120.547 57.4686 118.038 55.0001 117.407Z" fill="#2E353A"/>
<path d="M136.258 0.549802C126.779 -1.85919 117.148 3.8728 114.739 13.3493C114.339 14.9328 114.184 16.5148 114.217 18.0683L113.716 17.5568C110.579 14.4668 105.528 14.5063 102.437 17.6468L72.9883 47.4037L102.26 77.0637L131.71 47.3112C134.806 44.1697 134.761 39.1192 131.62 36.0252L130.996 35.3917C139.256 35.8132 146.944 30.3843 149.054 22.0638C151.465 12.5863 145.734 2.9533 136.258 0.549802ZM142.169 20.3163C140.728 25.9853 134.964 29.4173 129.294 27.9753C123.62 26.5353 120.187 20.7693 121.624 15.0968C123.066 9.42429 128.841 5.99329 134.509 7.43579C140.178 8.87579 143.609 14.6428 142.169 20.3163Z" fill="#2E353A"/>
</svg>
