<svg width="218" height="150" viewBox="0 0 218 150" fill="none" xmlns="http://www.w3.org/2000/svg">
<path d="M88.6562 92.097L99.6815 95.0537L100.333 92.6079L89.315 89.6606L88.6562 92.097Z" fill="#2E353A"/>
<path d="M97.9874 107.897H86.5781V110.429H97.9874V107.897Z" fill="#2E353A"/>
<path d="M128.702 57.224L122.994 47.3445L120.805 48.6069L126.513 58.4929L128.702 57.224Z" fill="#2E353A"/>
<path d="M106.556 78.4444L96.6772 72.7405L95.4123 74.9313L105.292 80.6352L106.556 78.4444Z" fill="#2E353A"/>
<path d="M143.116 51.6049L140.166 40.5906L137.724 41.2457L140.674 52.2637L143.116 51.6049Z" fill="#2E353A"/>
<path d="M116.235 66.3796L108.168 58.3118L106.385 60.0988L114.445 68.163L116.235 66.3796Z" fill="#2E353A"/>
<path d="M158.498 38.5115H155.966V49.9171H158.498V38.5115Z" fill="#2E353A"/>
<path d="M171.341 51.6049L173.783 52.2637L176.74 41.2457L174.297 40.5906L171.341 51.6049Z" fill="#2E353A"/>
<path d="M127.494 84.948C132.105 81.4391 137.435 79.268 142.718 78.2831C155.76 75.8577 165.172 77.323 171.842 78.5745V55.6327C167.183 54.3667 162.292 53.6775 157.229 53.6775C139.261 53.6775 123.296 62.2294 113.149 75.4772L113.376 75.6388L127.494 84.948Z" fill="#2E353A"/>
<path d="M110.913 73.8164L109.794 75.3158L112.044 76.9825C112.408 76.4752 112.771 75.9672 113.148 75.4766L110.913 73.8164Z" fill="#2E353A"/>
<path d="M112.044 76.9824C105.567 86.0583 101.739 97.1596 101.739 109.162H114.424C115.501 99.564 119.377 92.426 124.606 87.3931L112.264 77.1433L112.044 76.9824Z" fill="#2E353A"/>
<path d="M169.674 109.162C169.674 102.292 164.102 96.7211 157.228 96.7211C154.292 96.7211 151.596 97.74 149.476 99.4444L127.495 84.948C126.493 85.7024 125.519 86.5046 124.607 87.3938L145.586 104.817C145.079 106.167 144.784 107.63 144.784 109.162C144.784 116.034 150.355 121.605 157.229 121.605C160.481 121.605 163.424 120.352 165.64 118.311L171.602 121.338L172.72 119.835L168.219 114.987C169.145 113.248 169.674 111.268 169.674 109.162ZM157.228 115.419C153.826 115.419 151.053 112.689 150.985 109.299L155.835 113.323L159.245 115.059C158.607 115.272 157.935 115.419 157.228 115.419ZM163.423 109.803L160.66 106.815L155.253 103.255C155.877 103.043 156.536 102.906 157.229 102.906C160.686 102.906 163.487 105.704 163.487 109.162C163.486 109.378 163.444 109.591 163.423 109.803Z" fill="#2E353A"/>
<path d="M201.513 13.9645C201.513 13.9645 197.067 13.0521 192.539 12.3833C192.594 11.9202 192.683 11.4636 192.683 10.9875C192.683 4.92272 187.757 0 181.7 0H97.3074C91.2426 0 86.3235 4.92272 86.3235 10.9875C86.3235 12.1434 86.5503 13.234 86.8793 14.2805C82.9074 15.0283 79.2094 15.882 75.9578 16.8741C64.9528 20.2279 56.4321 24.0563 45.0025 34.2721C28.7908 48.7649 21.1346 60.3387 10.8094 78.8244C-8.38004 113.171 -3.14571 147.805 35.6034 149.19C73.2475 150.535 155.369 149.767 193.055 149.904C206.104 149.949 214.336 143.884 217.404 130.947C217.404 129.552 217.404 47.9866 217.404 47.9866C217.403 25.5999 212.243 16.8668 201.513 13.9645ZM176.623 6.47933C178.695 6.47933 180.369 8.15333 180.369 10.2223C180.369 12.2876 178.695 13.9645 176.623 13.9645C174.558 13.9645 172.885 12.2876 172.885 10.2223C172.884 8.15333 174.558 6.47933 176.623 6.47933ZM162.36 6.47933C164.431 6.47933 166.106 8.15333 166.106 10.2223C166.106 12.2876 164.431 13.9645 162.36 13.9645C160.288 13.9645 158.614 12.2876 158.614 10.2223C158.614 8.15333 160.288 6.47933 162.36 6.47933ZM148.302 6.47933C150.367 6.47933 152.041 8.15333 152.041 10.2223C152.041 12.2876 150.367 13.9645 148.302 13.9645C146.23 13.9645 144.556 12.2876 144.556 10.2223C144.557 8.15333 146.23 6.47933 148.302 6.47933ZM134.033 6.47933C136.104 6.47933 137.778 8.15333 137.778 10.2223C137.778 12.2876 136.104 13.9645 134.033 13.9645C131.967 13.9645 130.286 12.2876 130.286 10.2223C130.286 8.15333 131.967 6.47933 134.033 6.47933ZM119.769 6.47933C121.834 6.47933 123.515 8.15333 123.515 10.2223C123.515 12.2876 121.834 13.9645 119.769 13.9645C117.703 13.9645 116.03 12.2876 116.03 10.2223C116.03 8.15333 117.704 6.47933 119.769 6.47933ZM105.506 6.47933C107.571 6.47933 109.252 8.15333 109.252 10.2223C109.252 12.2876 107.571 13.9645 105.506 13.9645C103.44 13.9645 101.761 12.2876 101.761 10.2223C101.761 8.15333 103.44 6.47933 105.506 6.47933ZM58.6481 129.525C56.5698 129.47 50.4564 129.415 48.6592 129.35C20.5244 128.344 20.8737 106.013 34.8077 81.0753C42.0871 68.05 47.5823 59.7314 58.6481 49.6468V129.525ZM187.58 116.106C186.235 123.919 179.375 129.902 169.9 129.868C149.112 129.792 108.113 130.095 77.6252 129.82V46.9097C77.6252 46.9097 77.3158 36.7766 92.9855 33.7337C93.6928 33.6235 94.3783 33.5105 95.1059 33.4076C95.5175 33.346 95.9081 33.2735 96.3407 33.222C119.186 30.1791 152.234 30.9784 169.399 32.8141C172.734 33.2974 176.04 33.9764 176.04 33.9764C183.826 36.0794 187.58 42.4291 187.58 58.6814C187.58 58.6821 187.627 112.188 187.58 116.106ZM207.53 108.383C205.465 108.383 203.791 106.709 203.791 104.641C203.791 102.572 205.465 100.899 207.53 100.899C209.602 100.899 211.276 102.572 211.276 104.641C211.276 106.709 209.602 108.383 207.53 108.383ZM207.53 94.1209C205.465 94.1209 203.791 92.444 203.791 90.3743C203.791 88.309 205.465 86.6365 207.53 86.6365C209.602 86.6365 211.276 88.3097 211.276 90.3743C211.276 92.4433 209.602 94.1209 207.53 94.1209ZM207.53 80.0564C205.465 80.0564 203.791 78.3817 203.791 76.3142C203.791 74.2459 205.465 72.5712 207.53 72.5712C209.602 72.5712 211.276 74.2452 211.276 76.3142C211.276 78.3817 209.602 80.0564 207.53 80.0564ZM207.53 65.7897C205.465 65.7897 203.791 64.1157 203.791 62.0511C203.791 59.9829 205.465 58.3082 207.53 58.3082C209.602 58.3082 211.276 59.9821 211.276 62.0511C211.276 64.1157 209.602 65.7897 207.53 65.7897Z" fill="#2E353A"/>
<path d="M50.7997 107.217H36.2961C34.8416 107.217 33.6611 108.398 33.6611 109.851V111.005C33.6611 112.463 34.8416 113.642 36.2961 113.642H50.7997C52.2541 113.642 53.4339 112.463 53.4339 111.005V109.851C53.4332 108.398 52.2534 107.217 50.7997 107.217Z" fill="#2E353A"/>
</svg>
