<svg width="40" height="40" viewBox="0 0 40 40" fill="none" xmlns="http://www.w3.org/2000/svg">
<path d="M34.009 5.8125C30.2678 2.0625 25.2857 0 19.991 0C9.06248 0 0.169643 8.89288 0.169643 19.8214C0.169643 23.3125 1.08036 26.7232 2.8125 29.7322L0 40L10.509 37.241C13.4018 38.8214 16.6607 39.6518 19.9822 39.6518H19.991C30.9107 39.6518 40 30.759 40 19.8303C40 14.5357 37.75 9.56248 34.009 5.8125ZM19.991 36.3125C17.0268 36.3125 14.125 35.5178 11.5982 34.0178L11 33.6607L4.76786 35.2946L6.42857 29.2143L6.03571 28.5893C4.38393 25.9643 3.51786 22.9375 3.51786 19.8214C3.51786 10.741 10.9107 3.34822 20 3.34822C24.4018 3.34822 28.5357 5.0625 31.6429 8.17856C34.75 11.2946 36.6607 15.4286 36.6518 19.8303C36.6518 28.9197 29.0714 36.3125 19.991 36.3125ZM29.0268 23.9732C28.5357 23.7232 26.0982 22.5268 25.6429 22.3661C25.1875 22.1964 24.8571 22.1161 24.5268 22.6161C24.1964 23.1161 23.25 24.2232 22.9554 24.5625C22.6697 24.8929 22.375 24.9375 21.8839 24.6875C18.9732 23.2322 17.0625 22.0893 15.1429 18.7946C14.6339 17.9197 15.6518 17.9822 16.5982 16.0893C16.759 15.759 16.6786 15.4732 16.5536 15.2232C16.4286 14.9732 15.4375 12.5357 15.0268 11.5446C14.625 10.5803 14.2143 10.7143 13.9107 10.6964C13.625 10.6786 13.2946 10.6786 12.9643 10.6786C12.6339 10.6786 12.0982 10.8036 11.6429 11.2946C11.1875 11.7946 9.91072 12.991 9.91072 15.4286C9.91072 17.8661 11.6875 20.2232 11.9286 20.5536C12.1786 20.8839 15.4197 25.8839 20.3929 28.0357C23.5357 29.3929 24.7678 29.509 26.3393 29.2768C27.2946 29.1339 29.2678 28.0803 29.6786 26.9197C30.0893 25.759 30.0893 24.7678 29.9643 24.5625C29.8482 24.3393 29.5178 24.2143 29.0268 23.9732Z" fill="black"/>
</svg>
