<svg width="57" height="40" viewBox="0 0 57 40" fill="none" xmlns="http://www.w3.org/2000/svg">
<path d="M55.7076 6.25865C55.0533 3.7951 53.1253 1.8549 50.6774 1.19646C46.2403 0 28.4483 0 28.4483 0C28.4483 0 10.6563 0 6.21916 1.19646C3.77123 1.855 1.84327 3.7951 1.18891 6.25865C0 10.724 0 20.0404 0 20.0404C0 20.0404 0 29.3569 1.18891 33.8222C1.84327 36.2857 3.77123 38.1451 6.21916 38.8035C10.6563 40 28.4483 40 28.4483 40C28.4483 40 46.2402 40 50.6774 38.8035C53.1253 38.1451 55.0533 36.2857 55.7076 33.8222C56.8966 29.3569 56.8966 20.0404 56.8966 20.0404C56.8966 20.0404 56.8966 10.724 55.7076 6.25865ZM22.6293 28.4991V11.5818L37.4999 20.0406L22.6293 28.4991Z" fill="black"/>
</svg>
